<svg xmlns="http://www.w3.org/2000/svg" width="25" height="24" fill="none" viewBox="0 0 25 24">
  <path fill="#fff" d="M22.538 3.716c-.622-.671-20.732-.447-21.147 0-.415.448-.622 18.571 0 19.019.622.447 20.525.447 21.147 0 .622-.448.622-18.348 0-19.019z"/>
  <path stroke="#121417" stroke-linecap="round" stroke-linejoin="round" stroke-width="1.5" d="M22.774 4.168c-.635-.662-21.197-.442-21.621 0-.424.44-.636 18.31 0 18.751.636.441 20.986.441 21.622 0 .636-.441.635-18.09 0-18.751z"/>
  <path fill="#30CF72" d="M8.205 12.198l-2.257 2.197 4.924 4.47 7.18-6.667L15.795 10l-4.923 4.395-2.667-2.197z"/>
  <path stroke="#121417" stroke-width="1.5" d="M17.2 0v6M6.7 0v6"/>
</svg>
